<svg width="30" height="30" viewBox="0 0 30 30" fill="none" xmlns="http://www.w3.org/2000/svg">
<g clip-path="url(#clip0_6_713)">
<path d="M16.5979 0.00356053C16.5979 0.00356053 20.2765 -0.313256 20.3838 5.02985C20.4366 7.65948 19.48 9.83167 18.7204 11.1326C18.1393 12.1275 17.8359 13.2602 17.859 14.4122L17.8603 14.4752L16.8888 14.4947L15.9173 14.5142L15.916 14.4513C15.8929 13.2992 15.5442 12.1797 14.9237 11.2088C14.1124 9.93942 13.0695 7.80737 13.0167 5.1778C12.9096 -0.165366 16.5979 0.00356053 16.5979 0.00356053Z" fill="#00BB92"/>
<path d="M13.0168 5.1777C12.9811 3.39563 13.3678 2.22727 13.8988 1.46081C14.5884 1.1635 15.1638 1.18958 15.1638 1.18958C15.1638 1.18958 18.8425 0.87276 18.9497 6.21581C19.0025 8.84544 18.0459 11.0176 17.2863 12.3185C16.8911 12.9952 16.6247 13.7356 16.5018 14.5024L15.9173 14.5141L15.9161 14.4512C15.893 13.2991 15.5443 12.1796 14.9238 11.2087C14.1125 9.93938 13.0696 7.80733 13.0168 5.1777Z" fill="#00B083"/>
<path d="M11.1393 0.444011C11.1393 0.444011 14.9238 0.118113 15.0341 5.61497C15.0884 8.32024 14.1043 10.555 13.3228 11.8933C12.725 12.917 12.4129 14.0822 12.4366 15.2674L12.4379 15.3322L11.4385 15.3522L10.4391 15.3722L10.4378 15.3075C10.414 14.1223 10.0553 12.9705 9.41695 11.9717C8.58234 10.6659 7.50937 8.47241 7.45512 5.76714C7.34479 0.270222 11.1393 0.444011 11.1393 0.444011Z" fill="#00E98C"/>
<path d="M13.21 1.55661C13.21 1.55661 13.4341 1.53757 13.7744 1.58743C14.4461 2.33779 14.9931 3.57529 15.034 5.61493C15.0883 8.32021 14.1042 10.555 13.3227 11.8933C12.7249 12.9169 12.4127 14.0821 12.4365 15.2673L12.4378 15.3321L12.3916 15.333C12.2357 14.5368 11.9285 13.7741 11.4877 13.0843C10.653 11.7784 9.58007 9.58495 9.52576 6.87968C9.41554 1.38282 13.21 1.55661 13.21 1.55661Z" fill="#00DC9B"/>
<path d="M7.12081 7.80842C8.16419 8.1533 9.34192 7.42867 9.34192 7.42867C9.34192 7.42867 8.82805 6.14488 7.78467 5.8C6.74129 5.45512 5.56356 6.17975 5.56356 6.17975C5.56356 6.17975 6.07743 7.46354 7.12081 7.80842Z" fill="#00DC9B"/>
<path d="M6.919 11.6617C7.77775 12.9898 9.55057 13.3703 10.8787 12.5116C11.2207 12.2905 12.4599 11.4892 12.8018 11.2682C14.13 10.4094 14.5105 8.63661 13.6517 7.30846C12.793 5.98032 11.0202 5.59981 9.69201 6.45856C9.35006 6.67969 9.07145 6.96164 8.8601 7.28075C8.48234 7.3425 8.11086 7.48084 7.76891 7.70198C6.44082 8.56078 6.06031 10.3336 6.919 11.6617Z" fill="#FFD700"/>
<path d="M18.4345 21.7428C16.7384 21.5205 15.9972 16.5045 16.7789 10.5393C17.5606 4.57398 19.5693 -0.0816406 21.2654 0.140629C22.9615 0.362898 23.7027 5.37889 22.921 11.3442C22.1392 17.3094 20.1305 21.9651 18.4345 21.7428Z" fill="#FFD6A0"/>
<path d="M10.7357 9.57069L10.7357 8.88016C10.7357 8.11141 11.0419 7.41444 11.5389 6.90403C12.104 6.3236 12.4308 5.5525 12.4308 4.74244L12.4308 4.61594L14.1789 4.01231L15.927 4.61594L15.927 4.74239C15.927 5.5525 16.2537 6.3236 16.8189 6.90403C17.3159 7.41444 17.6221 8.11141 17.6221 8.88016L17.6221 9.57069L14.111 9.92483L10.7357 9.57069Z" fill="#FFF0F3"/>
<path d="M17.6221 9.57069L10.7357 9.57069L10.7357 13.0168L17.6221 13.0168L17.6221 9.57069Z" fill="#00E6FF"/>
<path d="M7.61185 30L23.3058 30C23.9619 30 24.4802 29.4434 24.4335 28.789L23.2467 12.1596C23.223 11.7771 22.7791 11.579 22.4786 11.8167L21.552 12.5497C21.3794 12.6862 21.1357 12.6862 20.9631 12.5497L19.6191 11.4866C19.4466 11.35 19.2028 11.35 19.0302 11.4866L17.6862 12.5497C17.5137 12.6862 17.2699 12.6862 17.0974 12.5497L15.7533 11.4866C15.5808 11.35 15.337 11.35 15.1645 11.4866L13.8204 12.5497C13.6479 12.6862 13.4041 12.6862 13.2316 12.5497L11.8876 11.4866C11.715 11.35 11.4712 11.35 11.2987 11.4866L9.95466 12.5497C9.7821 12.6862 9.53835 12.6862 9.36579 12.5497L8.43919 11.8167C8.13866 11.579 7.69482 11.7771 7.67109 12.1596L6.48432 28.789C6.43751 29.4434 6.95577 30 7.61185 30Z" fill="#FFA22C"/>
<path d="M6.48416 28.789L7.67098 12.1595C7.69471 11.7771 8.13856 11.579 8.43909 11.8167L9.3269 12.519L8.295 26.9781C8.2483 27.6325 8.76662 28.1891 9.42264 28.1891L24.3906 28.1891L24.4335 28.7889C24.4801 29.4434 23.9619 30 23.3058 30L7.6118 30C6.95573 30 6.43746 29.4434 6.48416 28.789Z" fill="#FF9035"/>
<path d="M13.8323 21.4542L17.0168 21.4542C17.3251 21.4542 17.575 21.2043 17.575 20.8961L17.575 17.7115C17.575 17.4033 17.325 17.1534 17.0168 17.1534L13.8323 17.1534C13.524 17.1534 13.2742 17.4033 13.2742 17.7115L13.2742 20.8961C13.2741 21.2043 13.524 21.4542 13.8323 21.4542Z" fill="#FFF0F3"/>
<path d="M20.5667 10.3691C20.6923 10.3691 20.8175 10.3636 20.9419 10.3527C21.1911 10.3309 21.3752 10.1113 21.3535 9.86223C21.3317 9.61314 21.1107 9.42951 20.8631 9.45066C20.6161 9.47228 20.3652 9.46672 20.1169 9.43414C19.8287 9.39635 19.5474 9.32264 19.2807 9.21506C19.0488 9.12154 18.785 9.23369 18.6915 9.4656C18.598 9.69746 18.7102 9.96125 18.9421 10.0548C19.2796 10.1909 19.6353 10.2841 19.9991 10.3319C20.1875 10.3566 20.3774 10.3691 20.5667 10.3691Z" fill="#FFB154"/>
<path d="M20.879 7.99109C21.0044 7.99109 21.1297 7.98564 21.2541 7.9748C21.5031 7.95301 21.6874 7.73346 21.6656 7.48437C21.6438 7.23529 21.425 7.05119 21.1752 7.07275C20.9283 7.09437 20.6772 7.08881 20.4291 7.05623C20.1408 7.01844 19.8596 6.94473 19.5928 6.83715C19.3607 6.74357 19.0971 6.8559 19.0036 7.08775C18.9101 7.31967 19.0223 7.5834 19.2542 7.67691C19.5918 7.81297 19.9474 7.90619 20.3113 7.95394C20.4997 7.97873 20.6896 7.99109 20.879 7.99109Z" fill="#FFB154"/>
<path d="M21.0143 5.58113C21.1047 5.58113 21.195 5.5772 21.2847 5.56935C21.5339 5.54756 21.718 5.32795 21.6962 5.07886C21.6745 4.82972 21.4547 4.64545 21.2058 4.66736C21.0462 4.68131 20.8839 4.67779 20.7233 4.65664C20.537 4.6322 20.355 4.58457 20.1827 4.51508C19.9508 4.4215 19.687 4.53371 19.5935 4.76562C19.5 4.99754 19.6122 5.26133 19.8441 5.35478C20.0873 5.45287 20.3435 5.52002 20.6056 5.55441C20.7412 5.57222 20.878 5.58113 21.0143 5.58113Z" fill="#FFB154"/>
<path d="M13.2742 24.1068L17.575 24.1068C17.8251 24.1068 18.0277 23.9041 18.0277 23.6541C18.0277 23.4041 17.825 23.2014 17.575 23.2014L13.2742 23.2014C13.0241 23.2014 12.8215 23.4041 12.8215 23.6541C12.8215 23.9041 13.0242 24.1068 13.2742 24.1068Z" fill="#FF9035"/>
<path d="M13.9373 26.3067L16.9118 26.3067C17.1619 26.3067 17.3645 26.104 17.3645 25.854C17.3645 25.604 17.1618 25.4013 16.9118 25.4013L13.9373 25.4013C13.6872 25.4013 13.4846 25.604 13.4846 25.854C13.4846 26.104 13.6873 26.3067 13.9373 26.3067Z" fill="#FF9035"/>
<path d="M11.8635 2.93526L16.4944 2.93526C16.6051 2.93526 16.6948 3.02496 16.6948 3.13565L16.6948 4.59668C16.6948 4.70737 16.6051 4.79707 16.4944 4.79707L11.8635 4.79707C11.7529 4.79707 11.6631 4.70737 11.6631 4.59668L11.6631 3.13565C11.6631 3.02496 11.7529 2.93526 11.8635 2.93526Z" fill="#00E6FF"/>
</g>
<defs>
<clipPath id="clip0_6_713">
<rect width="30" height="30" fill="white" transform="matrix(-1 -8.74228e-08 -8.74228e-08 1 30 0)"/>
</clipPath>
</defs>
</svg>
