<svg width="254" height="58" viewBox="0 0 254 58" fill="none" xmlns="http://www.w3.org/2000/svg">
<rect width="254" height="58" rx="8" fill="white"/>
<g clip-path="url(#clip0_6_712)">
<path d="M26.5979 14.0036C26.5979 14.0036 30.2765 13.6867 30.3838 19.0299C30.4366 21.6595 29.48 23.8317 28.7204 25.1326C28.1393 26.1275 27.8359 27.2602 27.859 28.4122L27.8603 28.4752L26.8888 28.4947L25.9173 28.5142L25.916 28.4513C25.8929 27.2992 25.5442 26.1797 24.9237 25.2088C24.1124 23.9394 23.0695 21.8074 23.0167 19.1778C22.9096 13.8346 26.5979 14.0036 26.5979 14.0036Z" fill="#00BB92"/>
<path d="M23.0168 19.1777C22.9811 17.3956 23.3678 16.2273 23.8988 15.4608C24.5884 15.1635 25.1638 15.1896 25.1638 15.1896C25.1638 15.1896 28.8425 14.8728 28.9497 20.2158C29.0025 22.8454 28.0459 25.0176 27.2863 26.3185C26.8911 26.9952 26.6247 27.7356 26.5018 28.5024L25.9173 28.5141L25.9161 28.4512C25.893 27.2991 25.5443 26.1796 24.9238 25.2087C24.1125 23.9394 23.0696 21.8073 23.0168 19.1777Z" fill="#00B083"/>
<path d="M21.1393 14.444C21.1393 14.444 24.9238 14.1181 25.0341 19.615C25.0884 22.3202 24.1043 24.555 23.3228 25.8933C22.725 26.917 22.4129 28.0822 22.4366 29.2674L22.4379 29.3322L21.4385 29.3522L20.4391 29.3722L20.4378 29.3075C20.414 28.1223 20.0553 26.9705 19.417 25.9717C18.5823 24.6659 17.5094 22.4724 17.4551 19.7671C17.3448 14.2702 21.1393 14.444 21.1393 14.444Z" fill="#00E98C"/>
<path d="M23.21 15.5566C23.21 15.5566 23.4341 15.5376 23.7744 15.5874C24.4461 16.3378 24.9931 17.5753 25.034 19.6149C25.0883 22.3202 24.1042 24.555 23.3227 25.8933C22.7249 26.9169 22.4127 28.0821 22.4365 29.2673L22.4378 29.3321L22.3916 29.333C22.2357 28.5368 21.9285 27.7741 21.4877 27.0843C20.653 25.7784 19.5801 23.585 19.5258 20.8797C19.4155 15.3828 23.21 15.5566 23.21 15.5566Z" fill="#00DC9B"/>
<path d="M17.1208 21.8084C18.1642 22.1533 19.3419 21.4287 19.3419 21.4287C19.3419 21.4287 18.8281 20.1449 17.7847 19.8C16.7413 19.4551 15.5636 20.1797 15.5636 20.1797C15.5636 20.1797 16.0774 21.4635 17.1208 21.8084Z" fill="#00DC9B"/>
<path d="M16.919 25.6617C17.7778 26.9898 19.5506 27.3703 20.8787 26.5116C21.2207 26.2905 22.4599 25.4892 22.8018 25.2682C24.13 24.4094 24.5105 22.6366 23.6517 21.3085C22.793 19.9803 21.0202 19.5998 19.692 20.4586C19.3501 20.6797 19.0714 20.9616 18.8601 21.2807C18.4823 21.3425 18.1109 21.4808 17.7689 21.702C16.4408 22.5608 16.0603 24.3336 16.919 25.6617Z" fill="#FFD700"/>
<path d="M28.4345 35.7428C26.7384 35.5205 25.9972 30.5045 26.7789 24.5393C27.5606 18.574 29.5693 13.9184 31.2654 14.1406C32.9615 14.3629 33.7027 19.3789 32.921 25.3442C32.1392 31.3094 30.1305 35.9651 28.4345 35.7428Z" fill="#FFD6A0"/>
<path d="M20.7357 23.5707L20.7357 22.8802C20.7357 22.1114 21.0419 21.4144 21.5389 20.904C22.104 20.3236 22.4308 19.5525 22.4308 18.7424L22.4308 18.6159L24.1789 18.0123L25.927 18.6159L25.927 18.7424C25.927 19.5525 26.2537 20.3236 26.8189 20.904C27.3159 21.4144 27.6221 22.1114 27.6221 22.8802L27.6221 23.5707L24.111 23.9248L20.7357 23.5707Z" fill="#FFF0F3"/>
<path d="M27.6221 23.5707L20.7357 23.5707L20.7357 27.0168L27.6221 27.0168L27.6221 23.5707Z" fill="#00E6FF"/>
<path d="M17.6118 44L33.3058 44C33.9619 44 34.4802 43.4434 34.4335 42.789L33.2467 26.1596C33.223 25.7771 32.7791 25.579 32.4786 25.8167L31.552 26.5497C31.3794 26.6862 31.1357 26.6862 30.9631 26.5497L29.6191 25.4866C29.4466 25.35 29.2028 25.35 29.0302 25.4866L27.6862 26.5497C27.5137 26.6862 27.2699 26.6862 27.0974 26.5497L25.7533 25.4866C25.5808 25.35 25.337 25.35 25.1645 25.4866L23.8204 26.5497C23.6479 26.6862 23.4041 26.6862 23.2316 26.5497L21.8876 25.4866C21.715 25.35 21.4712 25.35 21.2987 25.4866L19.9547 26.5497C19.7821 26.6862 19.5383 26.6862 19.3658 26.5497L18.4392 25.8167C18.1387 25.579 17.6948 25.7771 17.6711 26.1596L16.4843 42.789C16.4375 43.4434 16.9558 44 17.6118 44Z" fill="#FFA22C"/>
<path d="M16.4842 42.789L17.671 26.1595C17.6947 25.7771 18.1386 25.579 18.4391 25.8167L19.3269 26.519L18.295 40.9781C18.2483 41.6325 18.7666 42.1891 19.4226 42.1891L34.3906 42.1891L34.4335 42.7889C34.4801 43.4434 33.9619 44 33.3058 44L17.6118 44C16.9557 44 16.4375 43.4434 16.4842 42.789Z" fill="#FF9035"/>
<path d="M23.8323 35.4542L27.0168 35.4542C27.3251 35.4542 27.575 35.2043 27.575 34.8961L27.575 31.7115C27.575 31.4033 27.325 31.1534 27.0168 31.1534L23.8323 31.1534C23.524 31.1534 23.2742 31.4033 23.2742 31.7115L23.2742 34.8961C23.2741 35.2043 23.524 35.4542 23.8323 35.4542Z" fill="#FFF0F3"/>
<path d="M30.5667 24.3691C30.6923 24.3691 30.8175 24.3636 30.9419 24.3527C31.1911 24.3309 31.3752 24.1113 31.3535 23.8622C31.3317 23.6131 31.1107 23.4295 30.8631 23.4507C30.6161 23.4723 30.3652 23.4667 30.1169 23.4341C29.8287 23.3963 29.5474 23.3226 29.2807 23.2151C29.0488 23.1215 28.785 23.2337 28.6915 23.4656C28.598 23.6975 28.7102 23.9612 28.9421 24.0548C29.2796 24.1909 29.6353 24.2841 29.9991 24.3319C30.1875 24.3566 30.3774 24.3691 30.5667 24.3691Z" fill="#FFB154"/>
<path d="M30.879 21.9911C31.0044 21.9911 31.1297 21.9856 31.2541 21.9748C31.5031 21.953 31.6874 21.7335 31.6656 21.4844C31.6438 21.2353 31.425 21.0512 31.1752 21.0728C30.9283 21.0944 30.6772 21.0888 30.4291 21.0562C30.1408 21.0184 29.8596 20.9447 29.5928 20.8371C29.3607 20.7436 29.0971 20.8559 29.0036 21.0878C28.9101 21.3197 29.0223 21.5834 29.2542 21.6769C29.5918 21.813 29.9474 21.9062 30.3113 21.9539C30.4997 21.9787 30.6896 21.9911 30.879 21.9911Z" fill="#FFB154"/>
<path d="M31.0143 19.5811C31.1047 19.5811 31.195 19.5772 31.2847 19.5694C31.5339 19.5476 31.718 19.3279 31.6962 19.0789C31.6745 18.8297 31.4547 18.6454 31.2058 18.6674C31.0462 18.6813 30.8839 18.6778 30.7233 18.6566C30.537 18.6322 30.355 18.5846 30.1827 18.5151C29.9508 18.4215 29.687 18.5337 29.5935 18.7656C29.5 18.9975 29.6122 19.2613 29.8441 19.3548C30.0873 19.4529 30.3435 19.52 30.6056 19.5544C30.7412 19.5722 30.878 19.5811 31.0143 19.5811Z" fill="#FFB154"/>
<path d="M23.2742 38.1068L27.575 38.1068C27.8251 38.1068 28.0277 37.9041 28.0277 37.6541C28.0277 37.4041 27.825 37.2014 27.575 37.2014L23.2742 37.2014C23.0241 37.2014 22.8215 37.4041 22.8215 37.6541C22.8215 37.9041 23.0242 38.1068 23.2742 38.1068Z" fill="#FF9035"/>
<path d="M23.9373 40.3067L26.9118 40.3067C27.1619 40.3067 27.3645 40.104 27.3645 39.854C27.3645 39.604 27.1618 39.4013 26.9118 39.4013L23.9373 39.4013C23.6872 39.4013 23.4846 39.604 23.4846 39.854C23.4846 40.104 23.6873 40.3067 23.9373 40.3067Z" fill="#FF9035"/>
<path d="M21.8635 16.9353L26.4944 16.9353C26.6051 16.9353 26.6948 17.025 26.6948 17.1356L26.6948 18.5967C26.6948 18.7074 26.6051 18.7971 26.4944 18.7971L21.8635 18.7971C21.7529 18.7971 21.6631 18.7074 21.6631 18.5967L21.6631 17.1356C21.6631 17.025 21.7529 16.9353 21.8635 16.9353Z" fill="#00E6FF"/>
</g>
<path d="M54.208 14.8L53.376 15.76C52.992 15.4187 52.464 15.12 51.792 14.864C51.1307 14.5973 50.368 14.464 49.504 14.464C48.7467 14.464 48.1013 14.6133 47.568 14.912C47.0453 15.2 46.784 15.648 46.784 16.256C46.784 16.4693 46.8213 16.6613 46.896 16.832C46.9813 16.992 47.12 17.1253 47.312 17.232C47.5147 17.328 47.6907 17.408 47.84 17.472C47.9893 17.536 48.2347 17.5893 48.576 17.632C48.928 17.6747 49.184 17.7013 49.344 17.712C49.504 17.7227 49.792 17.7387 50.208 17.76C50.592 17.7813 50.8747 17.8027 51.056 17.824C51.248 17.8453 51.5413 17.888 51.936 17.952C52.3307 18.0053 52.64 18.0747 52.864 18.16C53.088 18.2347 53.3493 18.352 53.648 18.512C53.9573 18.6613 54.192 18.8373 54.352 19.04C54.5227 19.2427 54.6667 19.504 54.784 19.824C54.912 20.1333 54.976 20.48 54.976 20.864C54.976 21.6427 54.7573 22.2933 54.32 22.816C53.8827 23.3387 53.3227 23.712 52.64 23.936C51.9573 24.16 51.1787 24.272 50.304 24.272C48.2027 24.272 46.3733 23.5573 44.816 22.128L45.664 21.168C47.04 22.448 48.5973 23.088 50.336 23.088C51.2853 23.088 52.064 22.9173 52.672 22.576C53.28 22.224 53.584 21.712 53.584 21.04C53.584 20.6667 53.4987 20.3573 53.328 20.112C53.1573 19.856 52.896 19.664 52.544 19.536C52.192 19.3973 51.8453 19.3013 51.504 19.248C51.1627 19.1947 50.7307 19.1467 50.208 19.104C49.696 19.072 49.3067 19.0453 49.04 19.024C48.784 18.992 48.4267 18.944 47.968 18.88C47.52 18.8053 47.1733 18.7093 46.928 18.592C46.6827 18.4747 46.4267 18.3253 46.16 18.144C45.8933 17.952 45.696 17.712 45.568 17.424C45.4507 17.1253 45.392 16.7787 45.392 16.384C45.392 15.8187 45.5147 15.328 45.76 14.912C46.016 14.4853 46.352 14.16 46.768 13.936C47.1947 13.712 47.6373 13.5467 48.096 13.44C48.5653 13.3333 49.0507 13.28 49.552 13.28C50.5333 13.28 51.4347 13.4347 52.256 13.744C53.0773 14.0533 53.728 14.4053 54.208 14.8ZM58.4864 24H57.2224V12.8H58.4864V17.504C59.2544 16.672 60.1024 16.256 61.0304 16.256C61.9264 16.256 62.6464 16.5067 63.1904 17.008C63.745 17.4987 64.0224 18.1333 64.0224 18.912V24H62.7424V18.912C62.7424 18.4853 62.5717 18.1227 62.2304 17.824C61.889 17.5253 61.4517 17.376 60.9184 17.376C60.0864 17.376 59.2757 17.8027 58.4864 18.656V24ZM66.3026 20.224C66.3026 19.104 66.6813 18.1653 67.4386 17.408C68.2066 16.64 69.1666 16.256 70.3186 16.256C71.4813 16.256 72.4413 16.64 73.1986 17.408C73.9666 18.1653 74.3506 19.104 74.3506 20.224C74.3506 21.3547 73.9666 22.304 73.1986 23.072C72.4413 23.84 71.4813 24.224 70.3186 24.224C69.156 24.224 68.196 23.84 67.4386 23.072C66.6813 22.304 66.3026 21.3547 66.3026 20.224ZM67.6306 20.224C67.6306 21.0453 67.8813 21.7387 68.3826 22.304C68.884 22.8693 69.5293 23.152 70.3186 23.152C71.1186 23.152 71.7693 22.8693 72.2706 22.304C72.7826 21.7387 73.0386 21.0453 73.0386 20.224C73.0386 19.424 72.7826 18.7413 72.2706 18.176C71.7693 17.6107 71.1186 17.328 70.3186 17.328C69.5293 17.328 68.884 17.6107 68.3826 18.176C67.8813 18.7413 67.6306 19.424 67.6306 20.224ZM78.0496 27.36H76.7696V18.432C76.7696 17.632 76.711 16.9867 76.5936 16.496H77.7776C77.8736 16.88 77.9216 17.248 77.9216 17.6C78.199 17.248 78.5776 16.9387 79.0576 16.672C79.5483 16.3947 80.0763 16.256 80.6416 16.256C81.687 16.256 82.567 16.6293 83.2816 17.376C84.007 18.112 84.3696 19.072 84.3696 20.256C84.3696 21.4293 84.0016 22.384 83.2656 23.12C82.5296 23.856 81.6283 24.224 80.5616 24.224C79.6016 24.224 78.7643 23.8133 78.0496 22.992V27.36ZM78.0496 18.544V21.952C78.7963 22.72 79.591 23.104 80.4336 23.104C81.1483 23.104 81.7456 22.8427 82.2256 22.32C82.7163 21.7867 82.9616 21.0987 82.9616 20.256C82.9616 19.4027 82.727 18.7093 82.2576 18.176C81.7883 17.6427 81.207 17.376 80.5136 17.376C79.5963 17.376 78.775 17.7653 78.0496 18.544ZM92.2186 24H90.8266V13.552H99.0826V14.784H92.2186V17.984H96.4426V19.216H92.2186V24ZM100.012 18.272L99.5475 17.232C100.604 16.5813 101.756 16.256 103.004 16.256C103.942 16.256 104.737 16.4373 105.388 16.8C106.049 17.152 106.38 17.712 106.38 18.48V22.64C106.38 23.2373 106.46 23.6907 106.62 24H105.324C105.196 23.7547 105.121 23.4027 105.1 22.944C104.214 23.7547 103.174 24.16 101.98 24.16C101.073 24.16 100.348 23.92 99.8035 23.44C99.2595 22.96 98.9875 22.3413 98.9875 21.584C98.9875 20.88 99.2915 20.2933 99.8995 19.824C100.518 19.3547 101.366 19.12 102.444 19.12C103.66 19.12 104.545 19.3813 105.1 19.904V18.832C105.1 18.3307 104.897 17.9573 104.492 17.712C104.086 17.4667 103.574 17.344 102.956 17.344C102.401 17.344 101.852 17.44 101.308 17.632C100.764 17.824 100.332 18.0373 100.012 18.272ZM102.236 23.088C102.705 23.088 103.169 22.9973 103.628 22.816C104.086 22.624 104.428 22.448 104.652 22.288C104.876 22.1173 105.025 21.9787 105.1 21.872V20.928C104.886 20.6933 104.55 20.5013 104.092 20.352C103.644 20.2027 103.164 20.128 102.652 20.128C101.852 20.128 101.254 20.2613 100.86 20.528C100.476 20.7947 100.284 21.1467 100.284 21.584C100.284 22.0213 100.454 22.384 100.796 22.672C101.148 22.9493 101.628 23.088 102.236 23.088ZM115.269 17.152L114.773 18.128C114.443 17.9253 114.016 17.7387 113.493 17.568C112.981 17.3867 112.464 17.296 111.941 17.296C111.451 17.296 111.024 17.392 110.661 17.584C110.309 17.7653 110.133 18.0373 110.133 18.4C110.133 18.6133 110.197 18.7947 110.325 18.944C110.453 19.0827 110.64 19.184 110.885 19.248C111.141 19.312 111.365 19.3547 111.557 19.376C111.749 19.3973 111.984 19.4133 112.261 19.424C112.571 19.4347 112.816 19.4507 112.997 19.472C113.179 19.4933 113.429 19.5307 113.749 19.584C114.069 19.6267 114.331 19.7013 114.533 19.808C114.736 19.904 114.944 20.032 115.157 20.192C115.371 20.3413 115.531 20.5493 115.637 20.816C115.744 21.072 115.797 21.3653 115.797 21.696C115.797 22.528 115.467 23.1627 114.805 23.6C114.155 24.0267 113.312 24.24 112.277 24.24C110.944 24.24 109.717 23.8507 108.597 23.072L109.093 22.112C110.181 22.8267 111.237 23.184 112.261 23.184C112.923 23.184 113.461 23.0667 113.877 22.832C114.304 22.5973 114.517 22.2613 114.517 21.824C114.517 21.5787 114.448 21.376 114.309 21.216C114.171 21.0453 113.968 20.9227 113.701 20.848C113.445 20.7733 113.216 20.7253 113.013 20.704C112.821 20.6827 112.571 20.6613 112.261 20.64C111.92 20.6187 111.653 20.5973 111.461 20.576C111.269 20.5547 111.019 20.5227 110.709 20.48C110.4 20.4267 110.155 20.352 109.973 20.256C109.792 20.16 109.605 20.0427 109.413 19.904C109.221 19.7547 109.083 19.568 108.997 19.344C108.912 19.1093 108.869 18.8427 108.869 18.544C108.869 17.9893 109.029 17.5307 109.349 17.168C109.68 16.8053 110.059 16.56 110.485 16.432C110.923 16.2933 111.403 16.224 111.925 16.224C112.565 16.224 113.195 16.3253 113.813 16.528C114.432 16.72 114.917 16.928 115.269 17.152ZM117.074 17.488V16.496H118.546V14.224H119.826V16.496H122.082V17.488H119.826V22.144C119.826 22.4747 119.922 22.7253 120.114 22.896C120.306 23.0667 120.556 23.152 120.866 23.152C121.42 23.152 121.836 23.072 122.114 22.912L122.274 23.904C121.911 24.1493 121.362 24.272 120.626 24.272C120.071 24.272 119.586 24.1013 119.17 23.76C118.754 23.4187 118.546 22.88 118.546 22.144V17.488H117.074ZM124.316 23.92C124.124 23.7387 124.028 23.5147 124.028 23.248C124.028 22.9813 124.124 22.7573 124.316 22.576C124.519 22.384 124.769 22.288 125.068 22.288C125.367 22.288 125.612 22.384 125.804 22.576C126.007 22.7573 126.108 22.9813 126.108 23.248C126.108 23.5147 126.007 23.7387 125.804 23.92C125.612 24.1013 125.367 24.192 125.068 24.192C124.769 24.192 124.519 24.1013 124.316 23.92ZM141.13 14.8L140.298 15.76C139.914 15.4187 139.386 15.12 138.714 14.864C138.053 14.5973 137.29 14.464 136.426 14.464C135.669 14.464 135.023 14.6133 134.49 14.912C133.967 15.2 133.706 15.648 133.706 16.256C133.706 16.4693 133.743 16.6613 133.818 16.832C133.903 16.992 134.042 17.1253 134.234 17.232C134.437 17.328 134.613 17.408 134.762 17.472C134.911 17.536 135.157 17.5893 135.498 17.632C135.85 17.6747 136.106 17.7013 136.266 17.712C136.426 17.7227 136.714 17.7387 137.13 17.76C137.514 17.7813 137.797 17.8027 137.978 17.824C138.17 17.8453 138.463 17.888 138.858 17.952C139.253 18.0053 139.562 18.0747 139.786 18.16C140.01 18.2347 140.271 18.352 140.57 18.512C140.879 18.6613 141.114 18.8373 141.274 19.04C141.445 19.2427 141.589 19.504 141.706 19.824C141.834 20.1333 141.898 20.48 141.898 20.864C141.898 21.6427 141.679 22.2933 141.242 22.816C140.805 23.3387 140.245 23.712 139.562 23.936C138.879 24.16 138.101 24.272 137.226 24.272C135.125 24.272 133.295 23.5573 131.738 22.128L132.586 21.168C133.962 22.448 135.519 23.088 137.258 23.088C138.207 23.088 138.986 22.9173 139.594 22.576C140.202 22.224 140.506 21.712 140.506 21.04C140.506 20.6667 140.421 20.3573 140.25 20.112C140.079 19.856 139.818 19.664 139.466 19.536C139.114 19.3973 138.767 19.3013 138.426 19.248C138.085 19.1947 137.653 19.1467 137.13 19.104C136.618 19.072 136.229 19.0453 135.962 19.024C135.706 18.992 135.349 18.944 134.89 18.88C134.442 18.8053 134.095 18.7093 133.85 18.592C133.605 18.4747 133.349 18.3253 133.082 18.144C132.815 17.952 132.618 17.712 132.49 17.424C132.373 17.1253 132.314 16.7787 132.314 16.384C132.314 15.8187 132.437 15.328 132.682 14.912C132.938 14.4853 133.274 14.16 133.69 13.936C134.117 13.712 134.559 13.5467 135.018 13.44C135.487 13.3333 135.973 13.28 136.474 13.28C137.455 13.28 138.357 13.4347 139.178 13.744C139.999 14.0533 140.65 14.4053 141.13 14.8ZM145.408 24H144.144V12.8H145.408V17.504C146.176 16.672 147.024 16.256 147.952 16.256C148.848 16.256 149.568 16.5067 150.112 17.008C150.667 17.4987 150.944 18.1333 150.944 18.912V24H149.664V18.912C149.664 18.4853 149.494 18.1227 149.152 17.824C148.811 17.5253 148.374 17.376 147.84 17.376C147.008 17.376 146.198 17.8027 145.408 18.656V24ZM153.225 20.224C153.225 19.104 153.603 18.1653 154.361 17.408C155.129 16.64 156.089 16.256 157.241 16.256C158.403 16.256 159.363 16.64 160.121 17.408C160.889 18.1653 161.273 19.104 161.273 20.224C161.273 21.3547 160.889 22.304 160.121 23.072C159.363 23.84 158.403 24.224 157.241 24.224C156.078 24.224 155.118 23.84 154.361 23.072C153.603 22.304 153.225 21.3547 153.225 20.224ZM154.553 20.224C154.553 21.0453 154.803 21.7387 155.305 22.304C155.806 22.8693 156.451 23.152 157.241 23.152C158.041 23.152 158.691 22.8693 159.193 22.304C159.705 21.7387 159.961 21.0453 159.961 20.224C159.961 19.424 159.705 18.7413 159.193 18.176C158.691 17.6107 158.041 17.328 157.241 17.328C156.451 17.328 155.806 17.6107 155.305 18.176C154.803 18.7413 154.553 19.424 154.553 20.224ZM164.972 27.36H163.692V18.432C163.692 17.632 163.633 16.9867 163.516 16.496H164.7C164.796 16.88 164.844 17.248 164.844 17.6C165.121 17.248 165.5 16.9387 165.98 16.672C166.47 16.3947 166.998 16.256 167.564 16.256C168.609 16.256 169.489 16.6293 170.204 17.376C170.929 18.112 171.292 19.072 171.292 20.256C171.292 21.4293 170.924 22.384 170.188 23.12C169.452 23.856 168.55 24.224 167.484 24.224C166.524 24.224 165.686 23.8133 164.972 22.992V27.36ZM164.972 18.544V21.952C165.718 22.72 166.513 23.104 167.356 23.104C168.07 23.104 168.668 22.8427 169.148 22.32C169.638 21.7867 169.884 21.0987 169.884 20.256C169.884 19.4027 169.649 18.7093 169.18 18.176C168.71 17.6427 168.129 17.376 167.436 17.376C166.518 17.376 165.697 17.7653 164.972 18.544ZM186.021 14.8L185.189 15.76C184.805 15.4187 184.277 15.12 183.605 14.864C182.943 14.5973 182.181 14.464 181.317 14.464C180.559 14.464 179.914 14.6133 179.381 14.912C178.858 15.2 178.597 15.648 178.597 16.256C178.597 16.4693 178.634 16.6613 178.709 16.832C178.794 16.992 178.933 17.1253 179.125 17.232C179.327 17.328 179.503 17.408 179.653 17.472C179.802 17.536 180.047 17.5893 180.389 17.632C180.741 17.6747 180.997 17.7013 181.157 17.712C181.317 17.7227 181.605 17.7387 182.021 17.76C182.405 17.7813 182.687 17.8027 182.869 17.824C183.061 17.8453 183.354 17.888 183.749 17.952C184.143 18.0053 184.453 18.0747 184.677 18.16C184.901 18.2347 185.162 18.352 185.461 18.512C185.77 18.6613 186.005 18.8373 186.165 19.04C186.335 19.2427 186.479 19.504 186.597 19.824C186.725 20.1333 186.789 20.48 186.789 20.864C186.789 21.6427 186.57 22.2933 186.133 22.816C185.695 23.3387 185.135 23.712 184.453 23.936C183.77 24.16 182.991 24.272 182.117 24.272C180.015 24.272 178.186 23.5573 176.629 22.128L177.477 21.168C178.853 22.448 180.41 23.088 182.149 23.088C183.098 23.088 183.877 22.9173 184.485 22.576C185.093 22.224 185.397 21.712 185.397 21.04C185.397 20.6667 185.311 20.3573 185.141 20.112C184.97 19.856 184.709 19.664 184.357 19.536C184.005 19.3973 183.658 19.3013 183.317 19.248C182.975 19.1947 182.543 19.1467 182.021 19.104C181.509 19.072 181.119 19.0453 180.853 19.024C180.597 18.992 180.239 18.944 179.781 18.88C179.333 18.8053 178.986 18.7093 178.741 18.592C178.495 18.4747 178.239 18.3253 177.973 18.144C177.706 17.952 177.509 17.712 177.381 17.424C177.263 17.1253 177.205 16.7787 177.205 16.384C177.205 15.8187 177.327 15.328 177.573 14.912C177.829 14.4853 178.165 14.16 178.581 13.936C179.007 13.712 179.45 13.5467 179.909 13.44C180.378 13.3333 180.863 13.28 181.365 13.28C182.346 13.28 183.247 13.4347 184.069 13.744C184.89 14.0533 185.541 14.4053 186.021 14.8ZM190.315 24H189.035V18.4C189.035 17.76 188.966 17.1253 188.827 16.496H189.995C190.102 16.8587 190.161 17.2373 190.171 17.632C190.939 16.7147 191.782 16.256 192.699 16.256C193.265 16.256 193.766 16.3947 194.203 16.672C194.641 16.9493 194.966 17.3173 195.179 17.776C195.883 16.7627 196.753 16.256 197.787 16.256C198.555 16.256 199.195 16.5067 199.707 17.008C200.219 17.5093 200.475 18.144 200.475 18.912V24H199.179V18.912C199.179 18.4853 199.03 18.1227 198.731 17.824C198.433 17.5253 198.049 17.376 197.579 17.376C196.811 17.376 196.081 17.8027 195.387 18.656V24H194.107V18.704C194.065 18.3307 193.899 18.016 193.611 17.76C193.323 17.504 192.955 17.376 192.507 17.376C191.718 17.376 190.987 17.8027 190.315 18.656V24ZM203.668 18.272L203.204 17.232C204.26 16.5813 205.412 16.256 206.66 16.256C207.598 16.256 208.393 16.4373 209.044 16.8C209.705 17.152 210.036 17.712 210.036 18.48V22.64C210.036 23.2373 210.116 23.6907 210.276 24H208.98C208.852 23.7547 208.777 23.4027 208.756 22.944C207.87 23.7547 206.83 24.16 205.636 24.16C204.729 24.16 204.004 23.92 203.46 23.44C202.916 22.96 202.644 22.3413 202.644 21.584C202.644 20.88 202.948 20.2933 203.556 19.824C204.174 19.3547 205.022 19.12 206.1 19.12C207.316 19.12 208.201 19.3813 208.756 19.904V18.832C208.756 18.3307 208.553 17.9573 208.148 17.712C207.742 17.4667 207.23 17.344 206.612 17.344C206.057 17.344 205.508 17.44 204.964 17.632C204.42 17.824 203.988 18.0373 203.668 18.272ZM205.892 23.088C206.361 23.088 206.825 22.9973 207.284 22.816C207.742 22.624 208.084 22.448 208.308 22.288C208.532 22.1173 208.681 21.9787 208.756 21.872V20.928C208.542 20.6933 208.206 20.5013 207.748 20.352C207.3 20.2027 206.82 20.128 206.308 20.128C205.508 20.128 204.91 20.2613 204.516 20.528C204.132 20.7947 203.94 21.1467 203.94 21.584C203.94 22.0213 204.11 22.384 204.452 22.672C204.804 22.9493 205.284 23.088 205.892 23.088ZM214.222 24H212.942V18.4C212.942 17.7387 212.867 17.104 212.718 16.496H213.902C214.008 16.8907 214.067 17.3227 214.078 17.792C214.76 16.768 215.523 16.256 216.366 16.256C216.899 16.256 217.278 16.384 217.502 16.64L217.086 17.808C216.851 17.6053 216.515 17.504 216.078 17.504C215.48 17.504 214.862 17.9627 214.222 18.88V24ZM218.261 17.488V16.496H219.733V14.224H221.013V16.496H223.269V17.488H221.013V22.144C221.013 22.4747 221.109 22.7253 221.301 22.896C221.493 23.0667 221.744 23.152 222.053 23.152C222.608 23.152 223.024 23.072 223.301 22.912L223.461 23.904C223.099 24.1493 222.549 24.272 221.813 24.272C221.259 24.272 220.773 24.1013 220.357 23.76C219.941 23.4187 219.733 22.88 219.733 22.144V17.488H218.261ZM225.504 23.92C225.312 23.7387 225.216 23.5147 225.216 23.248C225.216 22.9813 225.312 22.7573 225.504 22.576C225.706 22.384 225.957 22.288 226.256 22.288C226.554 22.288 226.8 22.384 226.992 22.576C227.194 22.7573 227.296 22.9813 227.296 23.248C227.296 23.5147 227.194 23.7387 226.992 23.92C226.8 24.1013 226.554 24.192 226.256 24.192C225.957 24.192 225.706 24.1013 225.504 23.92ZM54.208 33.8L53.376 34.76C52.992 34.4187 52.464 34.12 51.792 33.864C51.1307 33.5973 50.368 33.464 49.504 33.464C48.7467 33.464 48.1013 33.6133 47.568 33.912C47.0453 34.2 46.784 34.648 46.784 35.256C46.784 35.4693 46.8213 35.6613 46.896 35.832C46.9813 35.992 47.12 36.1253 47.312 36.232C47.5147 36.328 47.6907 36.408 47.84 36.472C47.9893 36.536 48.2347 36.5893 48.576 36.632C48.928 36.6747 49.184 36.7013 49.344 36.712C49.504 36.7227 49.792 36.7387 50.208 36.76C50.592 36.7813 50.8747 36.8027 51.056 36.824C51.248 36.8453 51.5413 36.888 51.936 36.952C52.3307 37.0053 52.64 37.0747 52.864 37.16C53.088 37.2347 53.3493 37.352 53.648 37.512C53.9573 37.6613 54.192 37.8373 54.352 38.04C54.5227 38.2427 54.6667 38.504 54.784 38.824C54.912 39.1333 54.976 39.48 54.976 39.864C54.976 40.6427 54.7573 41.2933 54.32 41.816C53.8827 42.3387 53.3227 42.712 52.64 42.936C51.9573 43.16 51.1787 43.272 50.304 43.272C48.2027 43.272 46.3733 42.5573 44.816 41.128L45.664 40.168C47.04 41.448 48.5973 42.088 50.336 42.088C51.2853 42.088 52.064 41.9173 52.672 41.576C53.28 41.224 53.584 40.712 53.584 40.04C53.584 39.6667 53.4987 39.3573 53.328 39.112C53.1573 38.856 52.896 38.664 52.544 38.536C52.192 38.3973 51.8453 38.3013 51.504 38.248C51.1627 38.1947 50.7307 38.1467 50.208 38.104C49.696 38.072 49.3067 38.0453 49.04 38.024C48.784 37.992 48.4267 37.944 47.968 37.88C47.52 37.8053 47.1733 37.7093 46.928 37.592C46.6827 37.4747 46.4267 37.3253 46.16 37.144C45.8933 36.952 45.696 36.712 45.568 36.424C45.4507 36.1253 45.392 35.7787 45.392 35.384C45.392 34.8187 45.5147 34.328 45.76 33.912C46.016 33.4853 46.352 33.16 46.768 32.936C47.1947 32.712 47.6373 32.5467 48.096 32.44C48.5653 32.3333 49.0507 32.28 49.552 32.28C50.5333 32.28 51.4347 32.4347 52.256 32.744C53.0773 33.0533 53.728 33.4053 54.208 33.8ZM58.4864 43H57.2224V31.8H58.4864V36.504C59.2544 35.672 60.1024 35.256 61.0304 35.256C61.9264 35.256 62.6464 35.5067 63.1904 36.008C63.745 36.4987 64.0224 37.1333 64.0224 37.912V43H62.7424V37.912C62.7424 37.4853 62.5717 37.1227 62.2304 36.824C61.889 36.5253 61.4517 36.376 60.9184 36.376C60.0864 36.376 59.2757 36.8027 58.4864 37.656V43ZM66.3026 39.224C66.3026 38.104 66.6813 37.1653 67.4386 36.408C68.2066 35.64 69.1666 35.256 70.3186 35.256C71.4813 35.256 72.4413 35.64 73.1986 36.408C73.9666 37.1653 74.3506 38.104 74.3506 39.224C74.3506 40.3547 73.9666 41.304 73.1986 42.072C72.4413 42.84 71.4813 43.224 70.3186 43.224C69.156 43.224 68.196 42.84 67.4386 42.072C66.6813 41.304 66.3026 40.3547 66.3026 39.224ZM67.6306 39.224C67.6306 40.0453 67.8813 40.7387 68.3826 41.304C68.884 41.8693 69.5293 42.152 70.3186 42.152C71.1186 42.152 71.7693 41.8693 72.2706 41.304C72.7826 40.7387 73.0386 40.0453 73.0386 39.224C73.0386 38.424 72.7826 37.7413 72.2706 37.176C71.7693 36.6107 71.1186 36.328 70.3186 36.328C69.5293 36.328 68.884 36.6107 68.3826 37.176C67.8813 37.7413 67.6306 38.424 67.6306 39.224ZM78.0496 46.36H76.7696V37.432C76.7696 36.632 76.711 35.9867 76.5936 35.496H77.7776C77.8736 35.88 77.9216 36.248 77.9216 36.6C78.199 36.248 78.5776 35.9387 79.0576 35.672C79.5483 35.3947 80.0763 35.256 80.6416 35.256C81.687 35.256 82.567 35.6293 83.2816 36.376C84.007 37.112 84.3696 38.072 84.3696 39.256C84.3696 40.4293 84.0016 41.384 83.2656 42.12C82.5296 42.856 81.6283 43.224 80.5616 43.224C79.6016 43.224 78.7643 42.8133 78.0496 41.992V46.36ZM78.0496 37.544V40.952C78.7963 41.72 79.591 42.104 80.4336 42.104C81.1483 42.104 81.7456 41.8427 82.2256 41.32C82.7163 40.7867 82.9616 40.0987 82.9616 39.256C82.9616 38.4027 82.727 37.7093 82.2576 37.176C81.7883 36.6427 81.207 36.376 80.5136 36.376C79.5963 36.376 78.775 36.7653 78.0496 37.544ZM98.7466 32.552H100.139V43H98.8746L92.2346 34.984H92.2186V43H90.8266V32.552H92.0906L98.7306 40.568H98.7466V32.552ZM104.674 43H103.41V35.496H104.674V43ZM103.442 33.288C103.282 33.1387 103.202 32.9573 103.202 32.744C103.202 32.5307 103.282 32.3493 103.442 32.2C103.602 32.0507 103.799 31.976 104.034 31.976C104.269 31.976 104.466 32.0507 104.626 32.2C104.797 32.3493 104.882 32.5307 104.882 32.744C104.882 32.9573 104.797 33.1387 104.626 33.288C104.466 33.4373 104.269 33.512 104.034 33.512C103.799 33.512 103.602 33.4373 103.442 33.288ZM108.94 43H107.66V37.4C107.66 36.76 107.591 36.1253 107.452 35.496H108.62C108.727 35.8587 108.786 36.2373 108.796 36.632C109.564 35.7147 110.407 35.256 111.324 35.256C111.89 35.256 112.391 35.3947 112.828 35.672C113.266 35.9493 113.591 36.3173 113.804 36.776C114.508 35.7627 115.378 35.256 116.412 35.256C117.18 35.256 117.82 35.5067 118.332 36.008C118.844 36.5093 119.1 37.144 119.1 37.912V43H117.804V37.912C117.804 37.4853 117.655 37.1227 117.356 36.824C117.058 36.5253 116.674 36.376 116.204 36.376C115.436 36.376 114.706 36.8027 114.012 37.656V43H112.732V37.704C112.69 37.3307 112.524 37.016 112.236 36.76C111.948 36.504 111.58 36.376 111.132 36.376C110.343 36.376 109.612 36.8027 108.94 37.656V43ZM123.013 43H121.829C121.925 42.5093 121.973 41.8693 121.973 41.08V31.8H123.237V36.504C124.015 35.672 124.879 35.256 125.829 35.256C126.874 35.256 127.759 35.6293 128.485 36.376C129.21 37.112 129.573 38.0613 129.573 39.224C129.573 40.408 129.205 41.3733 128.469 42.12C127.733 42.856 126.831 43.224 125.765 43.224C125.189 43.224 124.661 43.0853 124.181 42.808C123.711 42.52 123.359 42.216 123.125 41.896C123.125 42.3013 123.087 42.6693 123.013 43ZM125.717 36.376C124.863 36.376 124.037 36.7653 123.237 37.544V40.936C123.45 41.2027 123.765 41.464 124.181 41.72C124.597 41.976 125.082 42.104 125.637 42.104C126.351 42.104 126.949 41.8373 127.429 41.304C127.919 40.7707 128.165 40.0773 128.165 39.224C128.165 38.3813 127.93 37.6987 127.461 37.176C126.991 36.6427 126.41 36.376 125.717 36.376ZM133.364 43H132.084V31.8H133.364V43ZM142.553 40.984L143.401 41.816C142.963 42.232 142.425 42.5733 141.785 42.84C141.145 43.096 140.462 43.224 139.737 43.224C138.553 43.224 137.614 42.8507 136.921 42.104C136.227 41.3573 135.881 40.4293 135.881 39.32C135.881 38.1787 136.254 37.2187 137.001 36.44C137.758 35.6507 138.707 35.256 139.849 35.256C140.851 35.256 141.726 35.576 142.473 36.216C143.23 36.856 143.614 37.7947 143.625 39.032C143.625 39.2027 143.619 39.3307 143.609 39.416H137.161C137.182 40.184 137.433 40.824 137.913 41.336C138.393 41.8373 139.043 42.088 139.865 42.088C140.942 42.088 141.838 41.72 142.553 40.984ZM139.785 36.328C139.134 36.328 138.585 36.5253 138.137 36.92C137.699 37.304 137.406 37.8 137.257 38.408H142.217C142.206 37.7467 141.955 37.2347 141.465 36.872C140.974 36.5093 140.414 36.328 139.785 36.328ZM145.972 42.92C145.78 42.7387 145.684 42.5147 145.684 42.248C145.684 41.9813 145.78 41.7573 145.972 41.576C146.175 41.384 146.426 41.288 146.724 41.288C147.023 41.288 147.268 41.384 147.46 41.576C147.663 41.7573 147.764 41.9813 147.764 42.248C147.764 42.5147 147.663 42.7387 147.46 42.92C147.268 43.1013 147.023 43.192 146.724 43.192C146.426 43.192 146.175 43.1013 145.972 42.92Z" fill="#005151"/>
<defs>
<clipPath id="clip0_6_712">
<rect width="30" height="30" fill="white" transform="matrix(-1 -8.74228e-08 -8.74228e-08 1 40 14)"/>
</clipPath>
</defs>
</svg>
